<?xml version="1.0" encoding="UTF-8"?>
<svg xmlns="http://www.w3.org/2000/svg" xmlns:xlink="http://www.w3.org/1999/xlink" width="px" height="120px" viewBox="0 0 464 120" version="1.1">
<defs>
<clipPath id="clip1">
  <path d="M 343 0 L 463.984375 0 L 463.984375 120 L 343 120 Z M 343 0 "/>
</clipPath>
</defs>
<g id="surface1">
<path style=" stroke:none;fill-rule:evenodd;fill:rgb(7.843138%,21.960784%,38.039216%);fill-opacity:1;" d="M 41.988281 64.835938 L 24.980469 64.835938 L 34.015625 35.421875 Z M 17.007812 94.5625 L 22.320312 76.640625 L 44.113281 76.640625 L 49.425781 94.5625 L 67.496094 94.5625 L 48.363281 26.542969 C 47.300781 22.074219 45.175781 20.636719 40.390625 20.636719 L 13.820312 20.636719 L 13.820312 26.753906 L 15.945312 26.753906 C 19.132812 26.753906 20.726562 27.765625 20.726562 30.210938 C 20.726562 31.753906 20.726562 32.765625 19.132812 36.433594 L 0 94.5625 "/>
<path style=" stroke:none;fill-rule:nonzero;fill:rgb(7.843138%,21.960784%,38.039216%);fill-opacity:1;" d="M 90.351562 94.5625 L 90.351562 26.0625 C 90.351562 22.5 88.226562 20.636719 84.503906 20.636719 L 68.027344 20.636719 L 68.027344 26.753906 L 69.09375 26.753906 C 72.28125 26.753906 73.875 28.085938 73.875 30.957031 L 73.875 94.5625 "/>
<path style=" stroke:none;fill-rule:nonzero;fill:rgb(7.843138%,21.960784%,38.039216%);fill-opacity:1;" d="M 120.113281 94.5625 L 120.113281 26.0625 C 120.113281 22.5 117.988281 20.636719 114.269531 20.636719 L 97.792969 20.636719 L 97.792969 26.753906 L 98.855469 26.753906 C 102.042969 26.753906 103.636719 28.085938 103.636719 30.957031 L 103.636719 94.5625 "/>
<path style=" stroke:none;fill-rule:evenodd;fill:rgb(7.843138%,21.960784%,38.039216%);fill-opacity:1;" d="M 150.410156 27.179688 C 150.410156 22.289062 146.6875 19.414062 140.839844 19.414062 C 134.464844 19.414062 131.273438 22.289062 131.273438 27.179688 C 131.273438 32.179688 134.464844 35.105469 140.839844 35.105469 C 146.6875 35.105469 150.410156 32.179688 150.410156 27.179688 M 149.875 94.5625 L 149.875 44.675781 C 149.875 41.222656 147.75 39.199219 144.5625 39.199219 L 128.085938 39.199219 L 128.085938 45.210938 L 129.148438 45.210938 C 132.339844 45.210938 133.402344 46.539062 133.402344 49.570312 L 133.402344 94.5625 "/>
<path style=" stroke:none;fill-rule:evenodd;fill:rgb(7.843138%,21.960784%,38.039216%);fill-opacity:1;" d="M 189.207031 67.707031 L 189.207031 78.769531 C 186.015625 81.960938 182.296875 83.769531 179.109375 83.769531 C 175.917969 83.769531 174.324219 82.226562 174.324219 78.078125 C 174.324219 73.503906 175.386719 71.75 179.109375 70.3125 C 181.765625 69.195312 184.421875 68.503906 189.207031 67.707031 M 165.820312 54.464844 L 167.414062 53.824219 C 171.667969 52.125 174.324219 51.484375 177.511719 50.898438 C 179.109375 50.6875 181.234375 50.476562 182.296875 50.476562 C 187.613281 50.476562 189.207031 52.230469 189.207031 57.121094 L 189.207031 58.503906 C 181.765625 59.730469 179.640625 60.152344 175.386719 61.058594 C 173.261719 61.589844 171.136719 62.28125 169.011719 63.1875 C 162.101562 65.953125 158.910156 71.269531 158.910156 79.621094 C 158.910156 90.097656 163.164062 95.097656 172.730469 95.097656 C 176.449219 95.097656 180.171875 94.246094 182.828125 92.542969 C 185.484375 91.320312 186.546875 90.679688 189.738281 87.757812 L 189.738281 89.457031 C 189.738281 92.914062 191.332031 94.5625 194.519531 94.5625 L 210.464844 94.5625 L 210.464844 88.875 L 209.933594 88.875 C 206.746094 88.875 205.152344 87.4375 205.152344 84.566406 L 205.152344 57.386719 C 205.152344 43.242188 200.367188 38.457031 186.546875 38.457031 C 181.765625 38.457031 177.511719 38.988281 173.261719 39.996094 C 169.011719 41.007812 166.882812 41.753906 162.101562 44.253906 "/>
<path style=" stroke:none;fill-rule:evenodd;fill:rgb(7.843138%,21.960784%,38.039216%);fill-opacity:1;" d="M 235.445312 94.5625 L 235.445312 57.015625 C 239.164062 53.558594 241.824219 52.230469 245.542969 52.230469 C 249.261719 52.230469 250.324219 53.824219 250.324219 59.460938 L 250.324219 94.5625 L 266.800781 94.5625 L 266.800781 56.804688 C 266.800781 49.039062 265.738281 45.6875 263.613281 42.761719 C 260.957031 39.890625 257.765625 38.5625 252.984375 38.5625 C 246.605469 38.5625 241.824219 40.902344 234.382812 47.335938 L 234.382812 44.359375 C 234.382812 40.902344 232.789062 39.199219 229.597656 39.199219 L 213.652344 39.199219 L 213.652344 45.210938 L 214.1875 45.210938 C 217.375 45.210938 218.96875 46.539062 218.96875 49.570312 L 218.96875 94.5625 "/>
<path style=" stroke:none;fill-rule:nonzero;fill:rgb(7.843138%,21.960784%,38.039216%);fill-opacity:1;" d="M 317.828125 83.976562 L 293.378906 83.976562 L 316.761719 50.578125 L 316.761719 39.195312 L 281.6875 39.195312 C 277.433594 39.195312 275.839844 40.898438 275.839844 44.992188 L 275.839844 55.042969 L 281.6875 55.042969 L 281.6875 53.929688 C 281.6875 50.898438 283.28125 49.671875 286.46875 49.671875 L 299.226562 49.671875 L 275.308594 83.074219 L 275.308594 94.558594 L 317.828125 94.558594 "/>
<g clip-path="url(#clip1)" clip-rule="nonzero">
<path style=" stroke:none;fill-rule:evenodd;fill:rgb(7.843138%,21.960784%,38.039216%);fill-opacity:1;" d="M 411.898438 91.527344 L 411.898438 28.878906 C 411.898438 23.824219 409.773438 22.175781 404.988281 22.175781 L 390.640625 22.175781 L 390.640625 29.089844 L 392.234375 29.089844 C 394.890625 29.089844 395.953125 30.101562 395.953125 33.1875 L 395.953125 91.527344 Z M 420.402344 91.527344 L 435.816406 91.527344 L 435.816406 44.25 C 435.816406 39.460938 433.6875 37.546875 428.90625 37.546875 L 420.402344 37.546875 Z M 387.449219 91.527344 L 387.449219 37.546875 L 378.945312 37.546875 C 374.164062 37.546875 372.039062 39.460938 372.039062 44.25 L 372.039062 91.527344 Z M 453.886719 60.042969 C 453.886719 89.347656 432.625 110.726562 403.925781 110.726562 C 375.226562 110.726562 353.96875 89.347656 353.96875 60.042969 C 353.96875 30.738281 375.226562 9.359375 403.925781 9.359375 C 432.625 9.359375 453.886719 30.738281 453.886719 60.042969 M 463.984375 60.042969 C 463.984375 25.742188 438.472656 0 403.925781 0 C 369.910156 0 343.867188 25.742188 343.867188 60.042969 C 343.867188 94.453125 369.910156 120.195312 403.925781 120.195312 C 438.472656 120.195312 463.984375 94.453125 463.984375 60.042969 "/>
</g>
</g>
</svg>
