<?xml version="1.0" encoding="UTF-8" standalone="no"?>
<svg
   xmlns:dc="http://purl.org/dc/elements/1.1/"
   xmlns:cc="http://creativecommons.org/ns#"
   xmlns:rdf="http://www.w3.org/1999/02/22-rdf-syntax-ns#"
   xmlns:svg="http://www.w3.org/2000/svg"
   xmlns="http://www.w3.org/2000/svg"
   viewBox="0 0 266.66666 266.66666"
   height="266.66666"
   width="266.66666"
   xml:space="preserve"
   id="svg2"
   version="1.1"><metadata
     id="metadata8"><rdf:RDF><cc:Work
         rdf:about=""><dc:format>image/svg+xml</dc:format><dc:type
           rdf:resource="http://purl.org/dc/dcmitype/StillImage" /></cc:Work></rdf:RDF></metadata><defs
     id="defs6" /><g
     transform="matrix(1.3333333,0,0,-1.3333333,0,266.66667)"
     id="g10"><path
       id="path12"
       style="fill:#0b004a;fill-opacity:1;fill-rule:nonzero;stroke:none"
       d="m 21.53711,104.28613 c 2.60596,3.19873 5.63769,6.51709 9.50049,10.22754 3.86621,3.71289 7.31152,6.61719 10.64306,9.11621 3.68946,2.76758 8.38868,2.86426 12.00782,0.0147 3.33252,-2.50146 6.78173,-5.40478 10.6499,-9.11865 3.86621,-3.71338 6.89258,-7.0249 9.49658,-10.22608 3.06787,-3.7622 3.05908,-7.75488 -0.01172,-11.51757 -2.60254,-3.20118 -5.63281,-6.5127 -9.4956,-10.22754 -3.86963,-3.70996 -7.30664,-6.60059 -10.63819,-9.10742 -3.69238,-2.77247 -8.29834,-2.76954 -11.99414,0 -3.33398,2.51074 -6.77929,5.40722 -10.64306,9.11914 -3.86768,3.71289 -6.88623,7.01464 -9.49268,10.21582 -2.87598,3.53418 -2.9751,8.02295 -0.02246,11.5039" /><path
       id="path14"
       style="fill:#f00000;fill-opacity:1;fill-rule:nonzero;stroke:none"
       d="m 18.83252,97.78125 c 0.33643,-1.7998 1.18066,-3.29395 2.57519,-5.00391 2.6084,-3.19824 5.77686,-6.50195 9.64454,-10.21582 3.86377,-3.71191 7.30908,-6.60839 10.64306,-9.11523 1.5586,-1.17285 3.31153,-1.85938 5.03565,-2.02832 -3.54346,0.86133 -8.74024,6.31543 -5.9834,16.17871 2.62402,9.36621 6.84326,16.2207 8.96435,20.4248 l 0.06104,0.12256 c 4.28809,8.0752 -1.76856,10.83399 -6.52637,6.78076 3.37744,4.64063 11.08692,12.22559 13.77442,14.99854 2.67382,2.78467 0.76367,5.63867 -4.55909,4.19922 -10.95507,-3.30713 -24.57617,-13.61084 -30.92773,-25.71826 -2.12402,-4.04834 -3.02344,-7.56299 -2.70166,-10.62305" /><path
       id="path16"
       style="fill:#000000;fill-opacity:1;fill-rule:nonzero;stroke:none"
       d="m 104.36426,90.07715 h -0.0527 l -5.51123,17.52734 h -7.41357 v -23.1289 h 4.44141 v 19.01953 l 0.06835,0.063 6.21778,-19.08252 h 4.43945 l 6.23438,19.08252 h 0.0596 V 84.4756 h 4.44531 v 23.1289 h -7.42481 l -5.5039,-17.52734 z" /><path
       id="path18"
       style="fill:#000000;fill-opacity:1;fill-rule:nonzero;stroke:none"
       d="m 131.42676,101.14551 c 0,2.51709 2.0498,3.20556 3.63965,3.20556 1.6289,0 3.24902,-0.36132 4.7041,-0.9873 l 0.43262,3.80713 c -1.69141,0.56348 -3.54688,0.83105 -5.53321,0.83105 -4.07812,0 -8.08008,-1.88769 -8.08008,-7.05273 0,-7.66309 10.13282,-5.83789 10.13282,-10.24219 0,-2.08887 -2.34864,-2.97265 -4.10743,-2.97265 -1.82128,0 -3.64746,0.55664 -5.23242,1.41894 l -0.42773,-4.17773 c 2.28613,-0.56348 3.40722,-0.89258 5.92578,-0.89258 4.67187,0 8.67676,1.91601 8.67676,6.98437 0,7.75489 -10.13086,6.06836 -10.13086,10.07813" /><path
       id="path20"
       style="fill:#000000;fill-opacity:1;fill-rule:nonzero;stroke:none"
       d="m 150.87988,84.47559 h 4.64063 v 23.1289 h -4.64063 z" /><path
       id="path22"
       style="fill:#000000;fill-opacity:1;fill-rule:nonzero;stroke:none"
       d="m 173.96777,93.80371 h 4.66309 v -5.56543 c -0.59961,-0.1289 -1.25977,-0.25781 -2.91113,-0.25781 -4.46094,0 -7.69727,3.37305 -7.69727,8.00879 0,4.72265 3.23145,8.01709 7.85254,8.01709 2.95313,0 4.43164,-0.56494 5.74023,-1.41699 l 0.90235,-0.58741 0.37402,4.76075 -0.46777,0.16064 c -1.78711,0.61816 -3.33203,1.14648 -6.7041,1.14648 -7.26172,0 -12.33399,-4.92675 -12.33399,-11.97802 0,-7.28223 4.94336,-12.16797 12.30274,-12.16797 2.68359,0 4.95703,0.32812 6.95605,1.00976 l 0.42871,0.15137 v 12.5918 h -9.10547 z" /></g></svg>