<?xml version="1.0" encoding="UTF-8"?>
<svg xmlns="http://www.w3.org/2000/svg" viewBox="0 0 380.65 58.7">
  <defs>
    <style>.cls-1{fill:#8bc53f;}.cls-2{fill:#009345;}</style>
  </defs>
  <g id="Layer_2" data-name="Layer 2">
    <g id="Layer_1-2" data-name="Layer 1">
      <path class="cls-1" d="M225.33,19.31v4.48c1.22-3,4.18-4.95,8.19-4.95,4.53,0,7,2.45,7.66,4.72,1.53-3.26,4.85-4.72,8.16-4.72a8.45,8.45,0,0,1,7.15,3.49c1,1.56.82,3.68.82,5.27v15h-3.62V28c0-2,.4-6.84-5.48-6.84-6.93,0-6.76,8.39-6.76,10.7V42.59h-3.62V28c0-2.22.09-6.84-5.41-6.84-6.62,0-6.84,7.16-6.84,10.7V42.59H222V19.31Z"></path>
      <path class="cls-1" d="M277.18,42.59l-.3-4.43a9.56,9.56,0,0,1-8.46,4.9c-4.83,0-7.62-2.92-7.62-6.12,0-6,9.28-7.59,15.82-9.95v-.84c0-3.82-2.62-5.18-6-5.18a15.09,15.09,0,0,0-7.33,2.11l-.82-2a17.54,17.54,0,0,1,8.67-2.27c3.4,0,7,1,8.32,3.45a8.06,8.06,0,0,1,.79,4.38v7.44c0,5,.21,6.55.7,8.48Zm-12.32-5.93c0,2.68,2.35,4.1,4.79,4.1a6.64,6.64,0,0,0,5.45-2.88c1.34-2,1.52-4.53,1.52-7.59V29c-6.62,2.31-11.76,3.49-11.76,7.59Z"></path>
      <rect class="cls-1" x="284.73" y="8.43" width="3.62" height="34.16"></rect>
      <path class="cls-1" d="M307.51,42.59l-.3-4.43a9.54,9.54,0,0,1-8.45,4.9c-4.83,0-7.62-2.92-7.62-6.12,0-6,9.28-7.59,15.81-9.95v-.84c0-3.82-2.61-5.18-6-5.18a15.09,15.09,0,0,0-7.32,2.11l-.83-2a17.56,17.56,0,0,1,8.66-2.27c3.42,0,7,1,8.33,3.45a8.06,8.06,0,0,1,.79,4.38v7.44c0,5,.21,6.55.7,8.48Zm-12.32-5.93c0,2.68,2.35,4.1,4.79,4.1a6.64,6.64,0,0,0,5.45-2.88c1.35-2,1.52-4.53,1.52-7.59V29c-6.63,2.31-11.76,3.49-11.76,7.59Z"></path>
      <path class="cls-1" d="M316.33,19.31l7.84,18.62,7.14-18.62h2.8L321,51.16h-3.57a36.9,36.9,0,0,0,5.15-8.57L312.19,19.31Z"></path>
      <path class="cls-1" d="M348.88,22a16.3,16.3,0,0,0-5.49-1c-1.09,0-4.79.23-4.79,3,0,1.41.91,2.26,4.39,4.24l.83.47c5.85,3.3,7.19,5.09,7.19,7.72,0,4.35-4.09,6.65-8.79,6.65a15.36,15.36,0,0,1-7.11-1.74l.87-2a13.27,13.27,0,0,0,6.1,1.6c3.22,0,5.44-1.42,5.44-3.72,0-2.12-2.08-3.16-5.1-4.95l-.77-.47c-3.58-2.11-6.54-3.72-6.54-7.07s3.53-5.89,8.45-5.89a16.76,16.76,0,0,1,6,1.18Z"></path>
      <rect class="cls-1" x="354.11" y="19.31" width="3.62" height="23.28"></rect>
      <path class="cls-1" d="M376.89,42.59l-.3-4.43a9.54,9.54,0,0,1-8.45,4.9c-4.84,0-7.62-2.92-7.62-6.12,0-6,9.28-7.59,15.81-9.95v-.84c0-3.82-2.61-5.18-6-5.18A15.09,15.09,0,0,0,363,23.08l-.82-2a17.51,17.51,0,0,1,8.66-2.27c3.41,0,7,1,8.33,3.45a8.15,8.15,0,0,1,.78,4.38v7.44c0,5,.22,6.55.7,8.48Zm-12.33-5.93c0,2.68,2.37,4.1,4.8,4.1a6.62,6.62,0,0,0,5.45-2.88c1.35-2,1.52-4.53,1.52-7.59V29c-6.62,2.31-11.77,3.49-11.77,7.59Z"></path>
      <polygon class="cls-2" points="93.37 19.27 93.37 21.49 85.57 21.49 85.57 42.59 81.06 42.59 81.06 21.49 73.26 21.49 73.26 19.27 93.37 19.27"></polygon>
      <path class="cls-2" d="M109.61,42.59l-.36-4.16a8.41,8.41,0,0,1-7.6,4.63c-4.52,0-6.92-3.13-6.92-6.18,0-5.28,6.44-7.15,14.22-9.82v-.72c0-3.38-2-4.81-5.25-4.81a13.53,13.53,0,0,0-6.45,1.89l-1.07-2.36a18.39,18.39,0,0,1,8.41-2.22c2.29,0,6.5.59,8.13,3.48.69,1.24.76,2.35.76,4.57v7.2a38.39,38.39,0,0,0,.68,8.5ZM99.42,36.46a3.74,3.74,0,0,0,3.93,3.82,5,5,0,0,0,4.43-2.77c1-1.87,1.17-3.94,1.17-6.87V29.38c-6.43,2.38-9.53,3.74-9.53,7Z"></path>
      <polygon class="cls-2" points="138.19 42.59 124.9 29.64 137.55 19.27 133.65 19.27 121.06 30.05 121.06 19.27 116.55 19.27 116.55 42.59 121.06 42.59 121.06 31.37 132.15 42.59 138.19 42.59"></polygon>
      <path class="cls-2" d="M153.21,42.59l-.36-4.16a8.41,8.41,0,0,1-7.6,4.63c-4.52,0-6.93-3.13-6.93-6.18,0-5.28,6.45-7.15,14.23-9.82v-.72c0-3.38-2-4.81-5.25-4.81a13.49,13.49,0,0,0-6.45,1.89l-1.08-2.36a18.47,18.47,0,0,1,8.42-2.22c2.29,0,6.5.59,8.13,3.48.69,1.24.76,2.35.76,4.57v7.2a38.39,38.39,0,0,0,.68,8.5ZM143,36.46A3.73,3.73,0,0,0,147,40.28a5,5,0,0,0,4.43-2.77c1-1.87,1.17-3.94,1.17-6.87V29.38c-6.44,2.38-9.53,3.74-9.53,7Z"></path>
      <polygon class="cls-2" points="176.12 19.27 176.12 21.52 164.71 21.52 164.71 29.97 175.44 29.97 175.44 32.23 164.71 32.23 164.71 42.59 160.19 42.59 160.19 19.27 176.12 19.27"></polygon>
      <path class="cls-2" d="M183.55,19.27V32.84c0,2.71.12,4.3,1.12,5.51,1.54,2,4.11,2.32,5.63,2.32,1.37,0,4.92-.33,6.2-3.28a11.45,11.45,0,0,0,.63-4.61V19.27h2.77V33.42c0,1.22.63,9.52-10.32,9.52-3.18,0-7.67-.92-9.51-4.35-.49-.92-1-2-1-5.15V19.27Z"></path>
      <polygon class="cls-2" points="207.3 19.27 207.3 40.24 218.51 40.24 218.51 42.59 202.78 42.59 202.78 19.27 207.3 19.27"></polygon>
      <polygon class="cls-1" points="355.89 7.54 358.6 10.46 355.89 13.38 353.23 10.46 355.89 7.54"></polygon>
      <path class="cls-1" d="M22.65,7.82,27,3.52,27.49,3l-1.9-1.9A3.67,3.67,0,0,0,23,0H9.66V7.22c2.44-.58,8.07-1.52,13,.6"></path>
      <path class="cls-1" d="M7.82,36.05h0L6,34.26,3,31.21l-1.91,1.9A3.67,3.67,0,0,0,0,35.7V49H7.22c-.58-2.44-1.53-8.07.6-13"></path>
      <path class="cls-1" d="M50.88,22.65l4.84,4.84,1.91-1.9A3.69,3.69,0,0,0,58.71,23V9.66H51.49c.57,2.44,1.52,8.08-.61,13"></path>
      <path class="cls-1" d="M36.05,50.88h0l-4.84,4.84,1.9,1.91A3.66,3.66,0,0,0,35.7,58.7H49V51.48c-2.45.58-8.07,1.53-13-.6"></path>
      <path class="cls-1" d="M39.86,39.86H33.7l-4.35,4.35L22.66,50.9c-4.91,2.12-10.55,1.17-13,.58V58.7H23a3.66,3.66,0,0,0,2.59-1.07l9-9L47.18,36l-4.83-4.83-2.49,2.5Z"></path>
      <path class="cls-1" d="M18.85,39.86V33.71l-4-4-.37-.38L7.81,22.67c-2.13-4.92-1.18-10.56-.59-13H0V23a3.64,3.64,0,0,0,1.07,2.59l9,9L22.66,47.19l4.83-4.84L25,39.86Z"></path>
      <path class="cls-1" d="M18.85,18.85H25l4.35-4.36h0L36,7.81C41,5.68,46.59,6.63,49,7.22V0H35.7a3.67,3.67,0,0,0-2.59,1.08L24.16,10,11.52,22.67l4.83,4.83,2.5-2.5Z"></path>
      <path class="cls-1" d="M57.63,33.11l-1.91-1.9-1.53-1.53-5.51-5.51L36,11.52l-4.82,4.83,2.49,2.5h6.16V25l4.35,4.36L50.9,36C53,41,52.07,46.6,51.49,49H58.7V35.7a3.67,3.67,0,0,0-1.07-2.59"></path>
      <path class="cls-2" d="M9.66,9.66h0c-1.74,6.32-.22,10.45,0,11.15L20.79,9.68c-.69-.22-4.82-1.76-11.13,0"></path>
      <path class="cls-2" d="M37.9,9.67,49,20.8c.22-.7,1.76-4.82,0-11.14-6.31-1.74-10.45-.22-11.14,0"></path>
      <path class="cls-2" d="M9.66,49c6.31,1.74,10.45.23,11.14,0L9.68,37.91c-.22.7-1.76,4.82,0,11.13"></path>
      <path class="cls-2" d="M49,49h0c1.74-6.31.22-10.45,0-11.14L37.91,49c.7.22,4.82,1.75,11.13,0"></path>
      <polygon class="cls-2" points="37.22 32.62 40.49 29.35 37.22 26.09 37.22 21.48 32.61 21.48 29.35 18.21 26.09 21.48 21.48 21.48 21.48 26.09 18.21 29.35 21.48 32.62 21.48 37.23 26.09 37.23 29.35 40.49 32.61 37.23 37.22 37.22 37.22 32.62"></polygon>
    </g>
  </g>
</svg>
